HIERARCHY
ROOT Bip001_Pelvis
{
  OFFSET 34.4345 95.6767 -26.8758
  CHANNELS 6 Xposition Yposition Zposition Zrotation Xrotation Yrotation
  JOINT Bip001_Spine
  {
    OFFSET 1.4188e-005 10.2191 -0.0116013
    CHANNELS 3 Zrotation Xrotation Yrotation
    JOINT Bip001_L_Thigh
    {
      OFFSET 11.0458 -10.2192 0.0116197
      CHANNELS 3 Zrotation Xrotation Yrotation
      JOINT Bip001_L_Calf
      {
        OFFSET -0.707118 -44.0221 0.360014
        CHANNELS 3 Zrotation Xrotation Yrotation
        JOINT Bip001_L_Foot
        {
          OFFSET -0.651902 -40.5938 -3.56146
          CHANNELS 3 Zrotation Xrotation Yrotation
          JOINT Bip001_L_Toe0
          {
            OFFSET 0.0530839 -10.2181 13.1504
            CHANNELS 3 Zrotation Xrotation Yrotation
            End Site
            {
              OFFSET -1.02532e-005 0 7.55606
            }
          }
        }
      }
    }
    JOINT Bip001_R_Thigh
    {
      OFFSET -11.0458 -10.2191 0.0115893
      CHANNELS 3 Zrotation Xrotation Yrotation
      JOINT Bip001_R_Calf
      {
        OFFSET 0.706994 -44.0221 0.35984
        CHANNELS 3 Zrotation Xrotation Yrotation
        JOINT Bip001_R_Foot
        {
          OFFSET 0.651786 -40.5938 -3.5613
          CHANNELS 3 Zrotation Xrotation Yrotation
          JOINT Bip001_R_Toe0
          {
            OFFSET -0.0531479 -10.2181 13.1504
            CHANNELS 3 Zrotation Xrotation Yrotation
            End Site
            {
              OFFSET -1.02894e-005 0 7.55606
            }
          }
        }
      }
    }
    JOINT Bip001_Spine1
    {
      OFFSET 1.87041e-005 14.5736 1.08638
      CHANNELS 3 Zrotation Xrotation Yrotation
      JOINT Bip001_Spine2
      {
        OFFSET 2.24614e-005 14.5058 -1.69078
        CHANNELS 3 Zrotation Xrotation Yrotation
        JOINT Bip001_Neck
        {
          OFFSET 2.20278e-005 15.3945 -0.489414
          CHANNELS 3 Zrotation Xrotation Yrotation
          JOINT Bip001_L_Clavicle
          {
            OFFSET 6.06036 -0.000579998 0.00836775
            CHANNELS 3 Zrotation Xrotation Yrotation
            JOINT Bip001_L_UpperArm
            {
              OFFSET 11.5509 -0.0600302 0.00193952
              CHANNELS 3 Zrotation Xrotation Yrotation
              JOINT Bip001_L_Forearm
              {
                OFFSET 25.9523 0.0806089 -2.15551
                CHANNELS 3 Zrotation Xrotation Yrotation
                JOINT Bip001_L_Hand
                {
                  OFFSET 32.2475 0.153767 1.63968
                  CHANNELS 3 Zrotation Xrotation Yrotation
                  JOINT Bip001_L_Finger0
                  {
                    OFFSET 6.04639 -2.20976 5.90322
                    CHANNELS 3 Zrotation Xrotation Yrotation
                    End Site
                    {
                      OFFSET 4.22375 -1.43895 0.606485
                    }
                  }
                  JOINT Bip001_L_Finger1
                  {
                    OFFSET 11.0826 -0.704819 -0.198153
                    CHANNELS 3 Zrotation Xrotation Yrotation
                    End Site
                    {
                      OFFSET 6.20027 -0.397518 -0.0787166
                    }
                  }
                }
              }
            }
          }
          JOINT Bip001_R_Clavicle
          {
            OFFSET -6.06037 -0.000563197 0.00835105
            CHANNELS 3 Zrotation Xrotation Yrotation
            JOINT Bip001_R_UpperArm
            {
              OFFSET -11.5509 -0.0599978 0.00190698
              CHANNELS 3 Zrotation Xrotation Yrotation
              JOINT Bip001_R_Forearm
              {
                OFFSET -25.9523 0.0806822 -2.15589
                CHANNELS 3 Zrotation Xrotation Yrotation
                JOINT Bip001_R_Hand
                {
                  OFFSET -32.2475 0.153859 1.63989
                  CHANNELS 3 Zrotation Xrotation Yrotation
                  JOINT Bip001_R_Finger0
                  {
                    OFFSET -6.04641 -2.20976 5.90317
                    CHANNELS 3 Zrotation Xrotation Yrotation
                    End Site
                    {
                      OFFSET -4.22376 -1.43895 0.60647
                    }
                  }
                  JOINT Bip001_R_Finger1
                  {
                    OFFSET -11.0826 -0.704794 -0.198182
                    CHANNELS 3 Zrotation Xrotation Yrotation
                    End Site
                    {
                      OFFSET -6.20028 -0.397504 -0.0787333
                    }
                  }
                }
              }
            }
          }
          JOINT Bip001_Head
          {
            OFFSET 1.09673e-005 11.2744 2.05948
            CHANNELS 3 Zrotation Xrotation Yrotation
            End Site
            {
              OFFSET 2.89576e-005 20.8808 -2.77728e-005
            }
          }
        }
      }
    }
  }
}
MOTION
Frames:	16
Frame Time:	0.04
33.495 94.7595 -30.3251 0.405789 -2.86989 1.05615 0.00668085 2.6748 0.101836 6.83675 -4.36681 9.12163 -1.53694 16.0437 0.418944 2.18436 -7.74025 0.105353 1.81639 -4.95539 -1.28238 -5.25452 -6.04299 -1.81444 0.35218 19.9636 2.54843 -10.1523 -9.65915 -5.22034 3.35435 -11.1957 3.87015 0.0108206 5.34962 0.203739 0.00863187 5.34963 0.20369 7.21756 -9.54114 -2.89238 -32.3011 9.04646 2.94724 -53.7373 44.904 9.49893 19.2504 3.4938 -28.7748 6.81004 0.335578 -6.49335 1.76556e-031 -6.36111e-015 1.59028e-015 3.53113e-031 -6.36111e-015 3.18055e-015 18.4947 18.3973 22.1036 50.009 5.84691 -7.13885 -68.8195 18.4677 72.3161 -21.3481 -12.0205 9.92069 2.20695e-031 -3.97569e-015 3.18055e-015 1.32417e-031 -2.38542e-015 3.18055e-015 -3.94064 -6.29921 -0.56877 
33.1295 94.4121 -30.3838 0.607248 -2.78188 -1.74533 0.0759163 2.79541 -0.153793 6.54503 -4.73807 9.14901 -1.5114 17.4778 3.03565 2.71371 -8.08412 0.126178 2.06246 -5.69734 -1.23267 -5.1807 -8.26567 1.01084 0.535779 22.7751 2.28769 -10.4798 -10.7163 -5.10663 3.38387 -11.2279 3.83415 0.157418 5.59059 -0.311914 0.159607 5.59058 -0.311874 6.20726 -8.50168 -0.760157 -30.7935 9.13184 1.25883 -54.5076 45.7701 8.95759 18.1345 2.02772 -27.4495 5.10579 1.52954 -5.20992 -3.18055e-015 0 1.59028e-015 -1.76556e-031 3.18056e-015 3.18055e-015 20.9005 17.2697 21.3295 53.8137 11.5373 -10.0065 -52.6831 19.498 52.0215 -18.8382 -10.4107 9.18765 2.20695e-032 1.59028e-015 -7.95139e-016 3.18055e-015 -1.19271e-015 -2.78299e-015 -3.31775 -7.93415 1.18464 
32.7214 93.8055 -30.5847 0.482257 -2.96103 -4.8508 0.17497 3.03343 -0.358326 6.58827 -5.87435 8.99407 -1.50631 20.7171 5.47499 4.1004 -8.59801 0.162591 2.04269 -7.01963 -0.792881 -4.84623 -10.818 1.99519 0.263885 26.3713 3.30838 -10.8373 -12.2587 -4.24397 3.4089 -11.2762 3.83396 0.369721 6.06568 -0.727454 0.369723 6.06571 -0.727456 5.86619 -7.87353 1.42681 -29.3512 9.78711 -1.36772 -54.8332 46.8381 7.62211 17.3148 1.10755 -25.2667 3.78011 1.95363 -4.17626 0 0 -0 4.41391e-032 -3.18056e-015 7.95139e-016 22.4704 16.0469 19.4575 55.04 14.75 -10.3323 -36.1268 15.7946 33.206 -15.6115 -11.2631 6.94397 -3.18055e-015 0 3.18055e-015 -3.18055e-015 -3.18056e-015 -0 -3.01119 -9.17717 3.19498 
32.3806 92.8429 -30.7727 0.269704 -3.68684 -7.73484 0.24742 3.32041 -0.622485 7.33511 -7.22692 7.42447 -3.43605 25.592 10.0095 5.20316 -10.3 0.255588 2.00086 -7.79165 -0.395658 -4.28258 -13.1992 2.6292 -0.534889 30.8796 4.38518 -11.2056 -14.437 -3.18138 3.46991 -11.4824 3.94604 0.532377 6.63788 -1.26255 0.532377 6.63791 -1.26255 5.60352 -6.82336 3.48679 -27.4131 9.83977 -4.11486 -55.5536 47.6092 5.94712 16.5402 0.0658939 -22.9706 3.20652 2.18257 -3.07665 3.53112e-031 -1.27222e-014 1.59028e-015 6.36111e-015 -1.27222e-014 7.95139e-016 23.753 14.5959 18.4583 54.8067 19.0865 -9.81335 -26.525 12.1222 18.3878 -11.5205 -10.621 3.34941 -6.36111e-015 -6.36111e-015 3.18055e-015 -6.36111e-015 -3.18056e-015 3.18055e-015 -2.30773 -10.3397 5.0916 
32.1388 91.8456 -30.8824 -0.0452302 -4.69729 -10.7615 0.371219 3.68348 -0.810499 8.35649 -7.78457 7.90856 -5.61003 29.8518 13.1449 5.05537 -12.8902 0.358537 1.78706 -7.78747 -0.0430838 -4.12561 -15.1595 5.87638 1.21905 34.9898 3.7517 -11.9719 -16.4134 -3.70081 3.4426 -11.4356 3.95738 0.797158 7.36126 -1.65009 0.797158 7.36127 -1.65009 4.85495 -6.37657 5.33617 -25.9609 10.2185 -6.12547 -55.3272 47.3899 4.19338 16.5176 -0.596776 -22.2347 2.75358 2.4821 -2.52653 -3.18055e-015 -1.59028e-015 -7.95139e-016 -3.18055e-015 0 3.97569e-016 25.0495 13.7008 17.7788 52.9581 17.6012 -10.393 -20.4787 6.77545 12.8019 -0.494331 -12.6654 3.89892 7.95139e-016 1.27222e-014 -7.95139e-016 2.38542e-015 9.54167e-015 -0 -1.32812 -11.0289 6.61706 
31.9154 90.8882 -30.9923 -0.403054 -5.68217 -13.352 0.48024 4.06194 -0.921743 9.04373 -8.08898 9.518 -6.51988 33.3626 14.2696 5.61756 -14.4336 0.47021 1.8506 -8.24219 0.148182 -4.04076 -16.9032 7.51543 2.56452 38.7431 4.18582 -12.913 -17.9652 -4.1403 3.44468 -11.4493 3.97931 1.03005 8.1154 -1.8848 1.03005 8.11541 -1.88479 4.0766 -6.20574 6.65173 -24.9216 10.7857 -8.22055 -53.2823 45.5315 1.21244 15.8396 -0.747688 -21.9723 3.37041 2.3972 -2.80657 1.10348e-032 1.59028e-015 -3.97569e-016 -3.18055e-015 3.18056e-015 -3.97569e-016 25.9425 12.9646 16.9149 52.2275 15.3236 -12.6073 -16.7976 -2.28014 11.3509 2.43245 -15.4466 2.82375 2.52829e-015 4.77083e-015 3.97569e-016 4.27387e-015 3.18056e-015 2.85753e-016 -0.0540902 -11.4489 7.57298 
31.6266 89.7895 -31.1112 -0.854408 -6.48735 -14.6389 0.607369 4.31486 -1.1338 10.336 -8.80315 9.85052 -8.75293 37.22 16.4113 5.60892 -16.6874 0.599719 1.94489 -8.24099 0.207928 -3.46415 -18.2322 9.17298 3.60161 42.2881 3.51777 -13.9228 -19.6119 -4.68071 3.61701 -11.9332 4.15913 1.31184 8.61651 -2.32364 1.30603 8.61656 -2.32344 3.982 -5.68054 7.53813 -24.6208 10.7717 -9.68819 -51.6111 43.8713 -1.0213 15.5394 -1.92439 -22.9871 4.23493 2.53202 -2.60085 -3.18055e-015 0 -0 0 0 -7.95139e-016 25.7833 11.5625 14.9034 52.5174 10.8577 -14.4871 -18.3717 -8.04658 11.825 1.4455 -14.8554 1.92789 -3.98812e-015 0 -3.97569e-016 -4.50993e-015 1.98785e-016 -3.97569e-016 0.463556 -12.2789 8.39585 
31.2982 88.8668 -31.0912 -1.37157 -7.60736 -15.0273 0.630589 4.56924 -1.45457 11.5064 -8.91261 9.57138 -10.8539 40.0697 18.2639 6.11291 -18.0827 0.697718 2.14101 -8.56912 0.20814 -2.9643 -18.6693 9.9421 4.60777 45.2004 3.58339 -15.1309 -20.7708 -5.85114 3.78929 -12.366 4.2412 1.38832 9.12066 -2.97409 1.38442 9.12069 -2.97393 4.40017 -5.2613 8.42926 -24.2929 10.7119 -10.7505 -50.5827 41.7141 -2.75503 15.3267 -3.6719 -24.7081 5.89201 2.58356 -2.68142 -3.18055e-015 0 -0 0 0 -0 26.0512 10.1823 12.176 52.3245 5.36064 -15.8255 -21.4256 -9.39496 14.6971 -0.818057 -12.4067 3.35325 -9.93923e-016 7.95139e-016 -0 3.18055e-015 1.59028e-015 -0 0.601563 -12.8386 9.40262 
30.8709 87.86 -31.047 -2.15389 -8.42804 -14.3958 0.713546 4.73482 -1.90506 13.1999 -9.46205 11.3839 -10.9979 43.7155 16.5004 6.30253 -19.7931 0.820435 2.22127 -8.71916 0.221213 -1.96663 -18.8893 11.1039 6.11212 47.8429 2.43968 -16.4693 -21.8544 -7.44499 3.94728 -12.5676 4.05133 1.59342 9.44275 -3.88926 1.59343 9.44278 -3.88927 4.6219 -4.72849 9.46985 -23.4734 10.4455 -11.8196 -50.0311 39.0725 -4.12199 15.3276 -4.14955 -27.0413 7.88151 2.08243 -3.41403 -6.36111e-015 -1.59028e-015 7.95139e-016 -3.18055e-015 0 2.38542e-015 26.3025 8.29262 8.57845 51.7106 -2.43048 -16.1072 -23.7301 -8.41355 20.9846 -2.70284 -11.1107 5.73142 -3.07495e-015 0 1.78906e-015 4.60621e-015 0 1.2424e-016 0.675138 -13.6152 10.5375 
30.5486 87.0674 -30.9367 -2.68899 -9.35824 -13.3191 0.738012 4.81774 -2.2942 14.6353 -9.59378 12.49 -11.3997 46.3749 15.1232 6.53855 -21.1126 0.938672 2.3757 -8.82456 0.0328981 -1.30827 -18.6169 12.031 7.81462 49.8853 1.01076 -17.701 -22.5801 -9.06911 4.05093 -12.951 4.31017 1.68938 9.60151 -4.6766 1.68271 9.60144 -4.67632 4.75672 -4.09838 10.4248 -22.8406 10.0856 -12.8758 -49.4817 37.0541 -4.9175 14.8353 -5.18448 -29.7621 10.1694 1.57396 -5.07625 9.54166e-015 3.18055e-015 -3.18055e-015 6.36111e-015 3.18056e-015 -3.18055e-015 25.9038 6.10817 4.5477 52.6776 -11.0009 -16.6045 -27.9596 -5.14186 30.3508 -6.44347 -11.3407 5.73901 8.24956e-015 0 -1.59028e-015 5.66536e-015 0 3.97569e-016 0.430947 -14.2591 11.6034 
30.4257 86.5204 -30.7619 -2.83295 -10.4804 -11.8993 0.688791 4.85394 -2.61635 15.4899 -9.35261 13.9332 -10.6463 48.4345 12.4916 5.56066 -22.8172 0.879772 2.34905 -8.17297 -0.153538 -1.17851 -17.8432 12.3708 9.12298 51.289 0.066099 -18.6643 -22.9492 -10.5848 4.19336 -13.2848 4.37773 1.61535 9.66987 -5.31986 1.61285 9.67099 -5.32034 4.69587 -3.29354 11.2604 -22.3473 9.49017 -13.7112 -48.8985 36.3896 -5.68406 14.7433 -5.82622 -32.346 11.7688 1.11134 -6.29601 -3.31043e-032 -7.95139e-016 -2.38542e-015 1.10348e-032 7.95139e-016 -7.95139e-016 25.3998 4.10905 1.51883 53.5811 -21.7885 -17.0135 -33.6022 -2.5277 41.4411 -7.40627 -10.5386 7.1277 -1.07344e-014 6.36111e-015 -3.18055e-015 -1.19271e-014 3.18056e-015 -2.38542e-015 0.0208361 -15.1702 12.5346 
30.4678 86.4152 -30.5586 -3.13823 -11.1768 -10.6878 0.687123 4.80434 -2.65184 16.2103 -8.80551 15.5555 -9.29134 49.1564 9.07917 5.53882 -23.6567 0.924284 2.33332 -7.80856 -0.2808 -1.11149 -16.7127 12.1237 9.67373 51.2518 -0.505447 -19.055 -22.8599 -11.3476 4.29427 -13.5199 4.42289 1.60404 9.57154 -5.3898 1.60608 9.57096 -5.38991 4.76079 -3.22288 11.7146 -21.9951 9.53755 -14.2228 -48.658 36.3379 -6.17619 15.0351 -6.33013 -35.1396 12.0902 0.706379 -6.94596 -6.36111e-015 -9.54166e-015 7.95139e-016 -3.18055e-015 -7.15625e-015 7.95139e-016 24.5979 3.45888 -0.168978 52.1572 -35.8327 -18.4131 -37.5531 1.54094 56.4075 -9.63919 -8.68652 7.05677 7.95139e-016 -3.18055e-015 -0 2.38542e-015 -3.18056e-015 1.59028e-015 -0.558021 -15.3867 13.0834 
30.7844 86.693 -30.3422 -3.03619 -11.434 -9.4543 0.635099 4.63916 -2.49764 16.0269 -8.37297 15.4485 -8.82315 48.5166 7.65975 5.88962 -23.5215 0.970817 2.36479 -7.77356 -0.447333 -1.58449 -15.5533 11.1031 9.24688 50.292 -0.20683 -18.9964 -22.4674 -11.647 4.37492 -13.8071 4.63191 1.48744 9.24551 -5.07316 1.48287 9.24557 -5.0726 4.76342 -4.00686 11.6285 -21.5225 10.2251 -14.31 -49.0757 35.7871 -5.94299 16.8663 -4.08219 -38.0066 12.0049 1.01395 -7.21226 1.54487e-031 -3.18055e-015 2.78299e-015 3.18055e-015 -4.77083e-015 1.59028e-015 24.3801 4.13804 -0.642948 45.2928 -50.6666 -20.7481 -39.9875 5.57045 71.0938 -13.1142 -7.97799 6.63545 -8.82781e-032 3.18055e-015 1.59028e-015 8.82782e-032 -3.18056e-015 1.59028e-015 -0.818184 -15.0881 12.9434 
31.1776 87.3253 -30.2109 -2.95402 -11.0731 -8.05162 0.65408 4.31212 -2.18469 15.5295 -8.25951 15.0182 -7.9067 47.0003 6.14105 6.54242 -22.3359 0.999503 2.53116 -7.96142 -0.739362 -2.11374 -14.2968 10.098 8.89347 48.1063 -0.236233 -18.4738 -21.6755 -11.5351 4.37123 -13.7983 4.61886 1.47935 8.59574 -4.43758 1.47936 8.59576 -4.43759 4.92854 -5.00112 10.7886 -21.7041 11.0491 -13.9215 -49.5889 35.1582 -4.94252 20.492 0.375389 -40.9423 10.5094 0.300919 -8.65703 9.54166e-015 5.46658e-016 -3.47873e-015 6.36111e-015 -3.8763e-015 -4.96962e-016 23.9003 5.36795 -0.483664 37.5697 -60.3112 -21.547 -38.1574 5.99373 83.0684 -17.2551 -8.11264 5.93848 -1.59028e-015 6.36111e-015 1.59028e-015 1.59028e-015 3.18056e-015 4.77083e-015 -1.36239 -14.3795 12.1271 
31.6689 88.3275 -29.9718 -2.75311 -10.7882 -6.30557 0.622394 3.97594 -1.85257 14.6524 -7.61348 13.8945 -7.11797 44.3137 4.97958 6.42076 -21.1554 0.910874 2.52746 -7.64073 -0.906771 -2.88922 -12.2469 8.14612 7.75218 44.7496 0.337042 -17.4434 -20.5851 -10.7958 4.31426 -13.6553 4.57655 1.39219 7.9292 -3.76248 1.38349 7.92923 -3.76256 4.78455 -5.80603 9.73447 -21.8888 11.5739 -13.2056 -49.8905 35.0334 -3.33672 23.5804 3.61606 -44.5351 8.65332 0.101196 -9.8565 9.54166e-015 1.98785e-015 -1.59028e-015 9.54166e-015 1.98785e-015 -3.97569e-016 23.3275 6.71213 0.735798 32.8903 -65.9196 -17.574 -39.6683 3.37983 90.2965 -17.223 -7.32227 5.98982 -1.59028e-015 6.36111e-015 -0 -1.59028e-015 6.36111e-015 -1.59028e-015 -1.76893 -13.4696 11.027 
32.0774 89.4779 -29.6908 -2.51828 -10.3514 -3.77828 0.557141 3.61782 -1.60722 13.8697 -6.91167 13.269 -5.69994 40.9991 2.13492 6.71399 -19.426 0.809362 2.27397 -7.40973 -0.783162 -3.25031 -9.71785 5.95785 6.25193 40.566 1.08816 -16.2822 -18.9814 -10.2973 4.33123 -13.6019 4.41769 1.21267 7.21852 -3.25843 1.21709 7.21855 -3.25885 4.84925 -6.57309 8.76038 -22.3061 12.0137 -12.15 -49.8186 35.9777 -1.95962 23.9298 3.65995 -47.1346 7.45778 1.57744 -8.6266 3.18055e-015 2.98177e-015 -1.98785e-015 6.36111e-015 2.5842e-015 -1.98785e-015 21.6801 8.26444 2.71616 36.3143 -70.8818 -3.85968 -43.4195 1.66147 92.1312 -18.9569 -7.71309 6.85248 -3.18055e-015 3.18055e-015 -0 -3.18055e-015 0 -1.59028e-015 -2.20602 -12.1949 10.0807 
